<svg id="like" xmlns="http://www.w3.org/2000/svg" xmlns:xlink="http://www.w3.org/1999/xlink" width="30" height="30" viewBox="0 0 30 30">
  <defs>
    <linearGradient id="linear-gradient" x1="0.5" x2="0.5" y2="1" gradientUnits="objectBoundingBox">
      <stop offset="0" stop-color="#f1ba22"/>
      <stop offset="1" stop-color="#dc8615"/>
    </linearGradient>
  </defs>
  <rect id="Rectangle_19" data-name="Rectangle 19" width="30" height="30" fill="none"/>
  <path id="star-svgrepo-com" d="M21.934,8.289a1.376,1.376,0,0,0-1.1-.923l-5.926-.906L12.25.791a1.375,1.375,0,0,0-2.49,0L7.1,6.462l-5.926.906A1.375,1.375,0,0,0,.4,9.687l4.328,4.438L3.7,20.4a1.376,1.376,0,0,0,2.024,1.426l5.282-2.921,5.282,2.921A1.376,1.376,0,0,0,18.312,20.4l-1.025-6.278,4.328-4.438A1.376,1.376,0,0,0,21.934,8.289Z" transform="translate(3.995 4)" fill="url(#linear-gradient)"/>
</svg>
